<svg width="500" height="500" viewBox="0 0 500 500" fill="none" xmlns="http://www.w3.org/2000/svg">
<g clip-path="url(#clip0_102_3)">
<rect width="500" height="500" rx="12" fill="#948787"/>
<circle cx="349" cy="455" r="250" fill="#D9D9D9"/>
<path d="M81.375 52.625C93.1667 52.625 101.771 54.9375 107.188 59.5625C112.646 64.1458 115.375 70.7292 115.375 79.3125C115.375 83.1875 114.729 86.875 113.438 90.375C112.188 93.8333 110.146 96.8958 107.312 99.5625C104.479 102.188 100.75 104.271 96.125 105.812C91.5417 107.312 85.9167 108.062 79.25 108.062H68.125V144H57.5V52.625H81.375ZM80.375 61.6875H68.125V98.9375H78.0625C83.8958 98.9375 88.75 98.3125 92.625 97.0625C96.5417 95.8125 99.4792 93.7917 101.438 91C103.396 88.1667 104.375 84.4167 104.375 79.75C104.375 73.6667 102.438 69.1458 98.5625 66.1875C94.6875 63.1875 88.625 61.6875 80.375 61.6875ZM214.05 98.1875C214.05 105.229 213.154 111.646 211.363 117.438C209.571 123.188 206.904 128.146 203.363 132.312C199.863 136.438 195.508 139.625 190.3 141.875C185.092 144.125 179.05 145.25 172.175 145.25C165.092 145.25 158.904 144.125 153.613 141.875C148.363 139.625 143.988 136.417 140.488 132.25C137.029 128.083 134.425 123.104 132.675 117.312C130.967 111.521 130.113 105.104 130.113 98.0625C130.113 88.7292 131.654 80.5417 134.738 73.5C137.821 66.4583 142.488 60.9792 148.738 57.0625C155.029 53.1458 162.904 51.1875 172.363 51.1875C181.404 51.1875 189.008 53.125 195.175 57C201.383 60.875 206.071 66.3333 209.238 73.375C212.446 80.375 214.05 88.6458 214.05 98.1875ZM141.3 98.1875C141.3 105.938 142.404 112.646 144.613 118.312C146.821 123.979 150.196 128.354 154.738 131.438C159.321 134.521 165.133 136.062 172.175 136.062C179.258 136.062 185.05 134.521 189.55 131.438C194.092 128.354 197.446 123.979 199.613 118.312C201.779 112.646 202.863 105.938 202.863 98.1875C202.863 86.3958 200.383 77.1875 195.425 70.5625C190.508 63.8958 182.821 60.5625 172.363 60.5625C165.279 60.5625 159.446 62.0833 154.863 65.125C150.279 68.1667 146.863 72.5 144.613 78.125C142.404 83.7083 141.3 90.3958 141.3 98.1875ZM234.725 144V52.625H245.35V144H234.725ZM342.212 144H329.962L280.15 67.25H279.65C279.775 69.2917 279.921 71.625 280.087 74.25C280.254 76.8333 280.379 79.6042 280.462 82.5625C280.587 85.4792 280.65 88.4583 280.65 91.5V144H270.775V52.625H282.962L332.587 129.125H333.025C332.942 127.667 332.837 125.604 332.712 122.938C332.587 120.229 332.462 117.333 332.337 114.25C332.254 111.125 332.212 108.229 332.212 105.562V52.625H342.212V144ZM395.513 144H384.825V62H356.075V52.625H424.138V62H395.513V144ZM136.75 226.188C136.75 233.229 135.854 239.646 134.062 245.438C132.271 251.188 129.604 256.146 126.062 260.312C122.562 264.438 118.208 267.625 113 269.875C107.792 272.125 101.75 273.25 94.875 273.25C87.7917 273.25 81.6042 272.125 76.3125 269.875C71.0625 267.625 66.6875 264.417 63.1875 260.25C59.7292 256.083 57.125 251.104 55.375 245.312C53.6667 239.521 52.8125 233.104 52.8125 226.062C52.8125 216.729 54.3542 208.542 57.4375 201.5C60.5208 194.458 65.1875 188.979 71.4375 185.062C77.7292 181.146 85.6042 179.188 95.0625 179.188C104.104 179.188 111.708 181.125 117.875 185C124.083 188.875 128.771 194.333 131.938 201.375C135.146 208.375 136.75 216.646 136.75 226.188ZM64 226.188C64 233.938 65.1042 240.646 67.3125 246.312C69.5208 251.979 72.8958 256.354 77.4375 259.438C82.0208 262.521 87.8333 264.062 94.875 264.062C101.958 264.062 107.75 262.521 112.25 259.438C116.792 256.354 120.146 251.979 122.312 246.312C124.479 240.646 125.562 233.938 125.562 226.188C125.562 214.396 123.083 205.188 118.125 198.562C113.208 191.896 105.521 188.562 95.0625 188.562C87.9792 188.562 82.1458 190.083 77.5625 193.125C72.9792 196.167 69.5625 200.5 67.3125 206.125C65.1042 211.708 64 218.396 64 226.188ZM168.05 272H157.425V180.625H208.3V190H168.05V223.5H205.863V232.812H168.05V272ZM109.062 375.688C109.062 381.104 107.708 385.729 105 389.562C102.333 393.354 98.5833 396.25 93.75 398.25C88.9167 400.25 83.2292 401.25 76.6875 401.25C73.2292 401.25 69.9583 401.083 66.875 400.75C63.7917 400.417 60.9583 399.938 58.375 399.312C55.7917 398.688 53.5208 397.917 51.5625 397V386.812C54.6875 388.104 58.5 389.312 63 390.438C67.5 391.521 72.2083 392.062 77.125 392.062C81.7083 392.062 85.5833 391.458 88.75 390.25C91.9167 389 94.3125 387.229 95.9375 384.938C97.6042 382.604 98.4375 379.812 98.4375 376.562C98.4375 373.438 97.75 370.833 96.375 368.75C95 366.625 92.7083 364.708 89.5 363C86.3333 361.25 82 359.396 76.5 357.438C72.625 356.062 69.2083 354.562 66.25 352.938C63.2917 351.271 60.8125 349.396 58.8125 347.312C56.8125 345.229 55.2917 342.812 54.25 340.062C53.25 337.312 52.75 334.167 52.75 330.625C52.75 325.75 53.9792 321.583 56.4375 318.125C58.9375 314.625 62.375 311.958 66.75 310.125C71.1667 308.25 76.2292 307.312 81.9375 307.312C86.8125 307.312 91.3125 307.771 95.4375 308.688C99.6042 309.604 103.417 310.833 106.875 312.375L103.562 321.5C100.271 320.125 96.7708 318.979 93.0625 318.062C89.3958 317.146 85.6042 316.688 81.6875 316.688C77.7708 316.688 74.4583 317.271 71.75 318.438C69.0833 319.562 67.0417 321.167 65.625 323.25C64.2083 325.333 63.5 327.812 63.5 330.688C63.5 333.896 64.1667 336.562 65.5 338.688C66.875 340.812 69.0417 342.708 72 344.375C75 346 78.9583 347.708 83.875 349.5C89.25 351.458 93.8125 353.542 97.5625 355.75C101.312 357.917 104.167 360.583 106.125 363.75C108.083 366.875 109.062 370.854 109.062 375.688ZM185.363 400L174.113 371H137.488L126.3 400H115.55L151.3 308.25H160.863L196.363 400H185.363ZM170.925 361.562L160.238 332.75C159.988 332 159.571 330.771 158.988 329.062C158.446 327.354 157.883 325.583 157.3 323.75C156.717 321.917 156.238 320.438 155.863 319.312C155.446 321.021 154.988 322.729 154.488 324.438C154.029 326.104 153.571 327.667 153.113 329.125C152.654 330.542 152.258 331.75 151.925 332.75L141.05 361.562H170.925ZM209.35 400V308.625H219.975V390.5H260.538V400H209.35ZM327.4 400H276.525V308.625H327.4V318H287.15V347.562H325.087V356.812H287.15V390.625H327.4V400Z" fill="white"/>
</g>
<defs>
<clipPath id="clip0_102_3">
<rect width="500" height="500" rx="12" fill="white"/>
</clipPath>
</defs>
</svg>
